<svg width="123" height="195" viewBox="0 0 123 195" version="1.1" xmlns="http://www.w3.org/2000/svg"
     xmlns:xlink="http://www.w3.org/1999/xlink">
    <title>logo</title>
    <desc>Created using Figma</desc>
    <g id="Canvas" transform="translate(-5000 261)">
        <g id="logo">
            <use xlink:href="#path0_fill" transform="translate(5000 -261)" />
        </g>
    </g>
    <defs>
        <path id="path0_fill" fill-rule="evenodd" fill="#333d3a"
              d="M 122.271 0L 0 0L 0 195L 122.271 195L 122.271 0ZM 63.4771 101.172L 63.4771 160.992L 65.2251 159.26L 69.0059 163.008L 62.6924 169.265L 60.8022 171.139L 58.9116 169.265L 52.6694 163.078L 56.4502 159.331L 58.127 160.992L 58.127 101.084C 51.2607 99.7225 46.0884 93.7122 46.0884 86.5175C 46.0884 84.4669 46.5166 82.5224 47.2656 80.7547L 44.3408 78.3506C 44.5728 76.6182 44.9292 74.5146 45.4468 72.3756L 50.2085 76.3C 52.937 73.4539 56.7891 71.6685 61.0693 71.6685C 65.207 71.6685 68.9521 73.3302 71.6812 76.0348L 77.3169 71.368C 77.8696 73.3655 78.2798 75.4338 78.5649 77.2369L 74.731 80.4011C 75.5688 82.2749 76.0503 84.3432 76.0503 86.5175C 76.0503 93.9067 70.6108 100.023 63.4771 101.172ZM 51.439 86.5175C 51.439 91.7854 55.7549 96.0633 61.0693 96.0633C 66.3843 96.0633 70.7002 91.7854 70.7002 86.5175C 70.7002 85.6513 70.5752 84.8028 70.3613 84.0073C 70.3076 83.7775 70.2363 83.5654 70.165 83.3533C 70.1504 83.3172 70.1357 83.2783 70.1211 83.2388L 70.1113 83.2118C 70.0938 83.1632 70.0757 83.1146 70.0581 83.0704C 70.0488 83.0615 70.0444 83.048 70.04 83.0347C 70.0356 83.0215 70.0312 83.0085 70.0225 82.9997C 69.9155 82.7169 69.7905 82.4517 69.6479 82.1866L 69.5942 82.0805C 69.5742 82.0302 69.5479 81.9856 69.5225 81.9435L 69.5195 81.9382L 69.5166 81.9332C 69.4995 81.905 69.4834 81.8778 69.4697 81.8507C 69.4609 81.8336 69.4482 81.8124 69.4351 81.7911C 69.4214 81.7682 69.4077 81.7452 69.3984 81.7269C 69.3809 81.6916 69.3584 81.6562 69.3359 81.6209C 69.3135 81.5855 69.291 81.5502 69.2734 81.5148L 69.229 81.439C 69.1895 81.3697 69.147 81.2962 69.0952 81.232L 68.9883 81.0729C 68.9658 81.029 68.937 80.992 68.9097 80.9575L 68.9072 80.9544C 68.8911 80.9344 68.876 80.9153 68.8633 80.8961C 68.8096 80.8431 68.7739 80.79 68.7383 80.737C 68.7114 80.7011 68.6841 80.6697 68.6567 80.6383C 68.6304 80.6079 68.604 80.5774 68.5776 80.5426C 68.5601 80.5072 68.5244 80.4542 68.4888 80.4188C 68.4438 80.3746 68.4038 80.326 68.3638 80.2774C 68.3237 80.2288 68.2832 80.1802 68.2388 80.136L 68.1318 80.0299L 67.936 79.8355L 67.8286 79.7294C 67.7573 79.641 67.686 79.5703 67.5972 79.4996L 67.5435 79.4465C 65.8315 77.9086 63.5664 76.9717 61.0693 76.9717C 58.4478 76.9717 56.0757 78.0147 54.3462 79.694L 54.1318 79.9062L 54.0786 79.9592C 53.8643 80.189 53.6504 80.4365 53.4541 80.684L 53.4365 80.7016C 53.4097 80.7458 53.3784 80.7856 53.3472 80.8254C 53.3159 80.8652 53.2847 80.905 53.2578 80.9491C 53.249 80.9579 53.2446 80.9666 53.2402 80.9753C 53.2358 80.9842 53.2314 80.9932 53.2222 81.0022C 53.0264 81.2673 52.8477 81.5502 52.6875 81.833L 52.6875 81.8507C 52.6606 81.8949 52.6338 81.9435 52.6074 81.992C 52.5806 82.0407 52.5537 82.0893 52.5269 82.1335C 52.5088 82.1335 52.5088 82.1512 52.5088 82.1512C 52.1523 82.8583 51.8672 83.6007 51.6885 84.3962C 51.5283 85.0856 51.439 85.7927 51.439 86.5175ZM 41.8623 155.23C 47.9438 147.328 53.1157 140.858 56.8965 136.244C 56.9419 136.184 56.9873 136.127 57.0327 136.071L 57.0405 136.061L 57.0596 136.037C 57.1123 135.972 57.165 135.907 57.2178 135.837L 57.1641 127.529C 56.0581 128.837 54.5601 130.658 52.7231 132.903C 48.978 137.499 43.8062 143.951 37.7603 151.8L 37.5103 149.449L 32.1958 150.015L 33.1411 158.8L 33.4263 161.434L 36.0835 161.151L 44.8584 160.215L 44.2876 154.947L 41.8623 155.23ZM 46.1782 67.2492C 41.6841 78.9516 41.2021 95.9042 57.1284 117.771L 57.1465 126.521C 35.9946 100.819 35.4951 80.0829 41.1665 65.3577C 44.1094 57.8094 48.6929 51.8698 52.3848 48.0515C 53.5615 46.8318 54.6851 45.7888 55.6484 44.9403C 57.1997 45.8772 58.7871 46.9202 60.2139 48.0338C 59.1436 48.9177 57.7886 50.1198 56.2544 51.7107C 52.7593 55.3169 48.7817 60.408 46.1782 67.2492ZM 83.4878 151.8C 77.4419 143.828 72.0737 136.527 68.1323 131.047C 66.9375 129.403 65.8853 127.936 64.9756 126.645C 87.5186 100.182 87.8218 79.1814 81.6152 64.4915C 78.4766 57.1377 73.6792 51.3925 69.8447 47.7333C 68.2217 45.8949 60.8027 41.0689 60.8027 41.0689L 47.48 32.2302C 47.498 32.0004 47.5156 31.7706 47.5156 31.5231C 47.5156 26.8386 43.6816 23.038 38.9551 23.038C 34.229 23.038 30.3945 26.8386 30.3945 31.5231C 30.3945 31.8236 30.4126 32.1241 30.4482 32.4247L 17.7324 41.9528C 16.6978 41.5108 15.5386 41.2634 14.3438 41.2634C 9.61768 41.2634 5.7832 45.064 5.7832 49.7485C 5.7832 54.433 9.61768 58.2337 14.3438 58.2337C 15.8774 58.2337 17.3223 57.8271 18.5703 57.12L 37.8496 72.9943C 38.1885 71.0851 38.6523 69.0699 39.2939 67.2845L 22.1729 53.1779C 22.6548 52.1173 22.9043 50.9506 22.9043 49.7308C 22.9043 48.2106 22.4941 46.7787 21.7983 45.5413L 32.731 37.3743C 34.2827 39.0007 36.4941 40.0259 38.9551 40.0259C 41.4878 40.0259 43.7705 38.9299 45.3398 37.1976L 54.3823 43.1902C 57.3604 44.8342 64.3516 49.8369 66.1348 51.5516C 69.7554 55.0164 73.8931 59.8953 76.6753 66.5421C 81.6689 78.3329 82.3467 95.8689 64.2622 119.079L 64.3516 134.954C 68.293 140.398 73.5186 147.522 79.3862 155.247L 76.9429 154.982L 76.3721 160.25L 85.1465 161.187L 87.8037 161.47L 89.0347 150.05L 83.7197 149.484L 83.4878 151.8ZM 14.3438 52.9305C 12.5781 52.9305 11.1333 51.4986 11.1333 49.7485C 11.1333 47.9985 12.5781 46.5666 14.3438 46.5666C 16.1094 46.5666 17.5537 47.9985 17.5537 49.7485C 17.5537 51.4986 16.1094 52.9305 14.3438 52.9305ZM 38.9551 34.7227C 37.1895 34.7227 35.7451 33.2909 35.7451 31.5408C 35.7451 29.7907 37.1895 28.3589 38.9551 28.3589C 40.7207 28.3589 42.1655 29.7907 42.1655 31.5408C 42.1655 33.2909 40.7207 34.7227 38.9551 34.7227ZM 103.712 41.9528C 104.747 41.5108 105.888 41.2634 107.083 41.2634C 111.809 41.2634 115.643 45.064 115.661 49.7485C 115.661 54.433 111.827 58.2337 107.101 58.2337C 105.567 58.2337 104.14 57.8271 102.892 57.1377L 85.0034 71.9337C 84.5933 70.0068 84.0586 68.0623 83.3452 66.4006L 99.2891 53.2133C 98.8076 52.1526 98.54 50.9859 98.54 49.7485C 98.54 48.2106 98.9502 46.7787 99.6636 45.5413L 88.3208 37.0031C 86.7515 38.8416 84.3975 40.0259 81.7578 40.0259C 79.4038 40.0259 77.2812 39.0714 75.7295 37.5511L 66.2061 43.8266C 64.6899 42.7306 63.0317 41.5639 61.5156 40.5563L 73.2861 32.7959C 73.2329 32.3893 73.1973 31.965 73.1973 31.5408C 73.1973 26.8563 77.0317 23.0556 81.7578 23.0556C 86.4839 23.0556 90.3184 26.8563 90.3184 31.5408L 90.3184 31.8413L 103.712 41.9528ZM 78.5474 31.5408C 78.5474 33.2908 79.9922 34.7227 81.7578 34.7227C 83.5234 34.7227 84.9678 33.2908 84.9678 31.5408C 84.9678 29.7907 83.5234 28.3589 81.7578 28.3589C 79.9922 28.3589 78.5474 29.7907 78.5474 31.5408ZM 103.873 49.7485C 103.873 51.4986 105.317 52.9305 107.083 52.9305C 108.848 52.9305 110.293 51.4986 110.293 49.7485C 110.293 47.9984 108.848 46.5666 107.083 46.5666C 105.317 46.5666 103.873 47.9984 103.873 49.7485Z"/>
    </defs>
</svg>
